<?xml version="1.0" encoding="UTF-8"?>
<svg id="Layer_1" data-name="Layer 1" xmlns="http://www.w3.org/2000/svg" viewBox="0 0 752.81 752.36">
  <defs>
    <style>
      .cls-1 {
        fill: #9b2247;
      }
    </style>
  </defs>
  <path class="cls-1" d="M686.32,752.36c-11.39-45.84,23.92-106.81,66.49-118.41v33.7c-1.56.57-3.16,1.03-4.66,1.73-26.6,12.31-40.14,39.07-42.08,82.98h-19.75Z"/>
  <path class="cls-1" d="M752.81,133.9c-16.48,8.39-34.02,12.61-52.45,13.17-12.99.39-25.79-.74-37.85-6.05-7.05-3.1-13.08-7.04-15.33-15.46-2.22-8.31-2.22-15.59,4.66-21.61,6.07-5.31,15.61-6.23,23.47-1.87,4.48,2.48,8.31,6.13,12.79,8.61,19.14,10.63,39.66,13.32,61.12,9.94,1.19-.19,2.39-.27,3.58-.4v13.66Z"/>
  <path class="cls-1" d="M418.67,752.36c-9.74-12.13-23.1-59.4-19.01-75.23,3.5-13.56,9.04-26.12,19.48-35.87,2.02-1.88,5.03-2.71,7.58-4.02-.02,2.59.3,5.23-.12,7.75-5.96,35.43-1.94,68.22,20.54,97.18,2.66,3.43,5.06,6.79,7.78,10.19h-36.24Z"/>
  <path class="cls-1" d="M271.89,752.36c-6.27-3.73-12.99-6.3-19.84-8.12-20.59-5.48-41.72-4.91-62.81-4.5-7.07.14-14.17-.65-21.23-1.32-.29-.03-.56-.16-.83-.36-1.48-1.11-1.32-3.47.32-4.32.32-.16.64-.26.94-.23,22.64,1.8,44.01-5.88,66.02-8.63,26.2-3.27,62.35,7.42,87.46,27.48h-50.03Z"/>
  <path class="cls-1" d="M752.81,427.08c-23.13-2.77-45.19-16.92-49.54-35.77-1.59-6.87-.52-13.46,3.37-19.6,4.96-7.84,15.11-8.53,21.26-1.38,2.51,2.92,4.73,6.2,6.12,9.59,3.38,8.26,9.36,14.39,18.78,18.13v29.02Z"/>
  <path class="cls-1" d="M752.81,112.72c-23.94,4.2-46.5.61-66.64-14.01-6.73-4.88-12.43-10.87-14.43-19.22-.85-3.54-1.06-7.62-.18-11.11,1.62-6.5,6.15-10.81,12.98-11.77,7.11-1.01,12.32,2.42,15.94,8.26,2.95,4.75,5.25,9.92,8.35,14.56,12.86,17.4,39.19,16.77,43.98,17.38v15.92Z"/>
  <path class="cls-1" d="M752.81,504.38c-10.59,2.39-20.95.9-30.7-3.15-31.77-13.19-50.04-37.48-56.68-70.85-.05-.23-.06-.48-.04-.72.21-2.98,4.15-4.19,6.04-1.88.1.13.2.26.28.4,8.66,14.8,18.91,28.21,33.12,38.12,14.53,10.13,30.18,15.37,47.98,9.84v28.24Z"/>
  <path class="cls-1" d="M752.81,80.62c-9.55-1.4-17.68-9.3-25.33-14.7C689.9,31.47,686.47,1.24,686.32.04h19.72c6.12,21.57,31.28,50.27,46.77,50.87v29.71Z"/>
  <path class="cls-1" d="M752.81,144.83c-15.4,14.11-31.17,27.86-52.77,31.14-8.92,1.35-18.13.9-27.21,1.07-10.6.2-21.21-.1-31.8.36-8.22.36-15.48,3.9-22.32,8.36-.22.14-.45.26-.7.35-2.05.8-4.33-1.25-3.52-3.29.06-.16.14-.3.23-.43,10.93-14.86,24.73-25.75,43.68-27.27,8.16-.65,16.65.71,24.77,2.28,22.45,4.34,43.09.8,61.99-12.31,2.33-1.62,5.08-2.62,7.64-3.91v3.64Z"/>
  <path class="cls-1" d="M585.22,752.36c-6.03-3.61-11.75-7.9-18.14-10.68-13.81-6.01-28.27-7.68-43.16-4.3-1.37.31-2.98-.48-4.48-.75.9-1.39,1.49-3.26,2.76-4.11,11.26-7.54,23.88-11.03,37.3-11.47,25.06-.84,48.87,10.92,76.85,31.31h-51.13Z"/>
  <path class="cls-1" d="M651.71,752.36c-5.45-22.49-16.24-41.71-34.63-56.2-3.81-3-8.21-5.27-11.84-8.45-1.8-1.58-3.8-4.81-3.31-6.67.64-2.44,3.26-5.16,5.69-6.16,6.1-2.53,12.55-1.94,17.62,2.41,8.25,7.07,16.78,14.07,23.76,22.32,11.48,13.57,19.42,29.27,23.01,46.9.39,1.92.43,3.9.64,5.86h-20.95Z"/>
  <path class="cls-1" d="M474.09,752.36c-32.85-26.41-24.57-73.96,2.76-94.57.48-.37.91-.96,1.44-1.08.22-.05.44-.09.66-.13,2-.34,3.84,1.67,2.95,3.49-.07.14-.15.27-.25.38-10.02,10.93-13.23,24.14-12.14,38.35,1.95,25.54,16.2,38.42,41.94,53.55h-37.37Z"/>
  <path class="cls-1" d="M83.34,752.36c-2.54-6.59-5.87-13-7.46-19.82-3.56-15.22-2.85-30.12,6.51-43.58,2.46-3.54,5.57-5.93,10-6.35,6.32-.61,10.99,2.98,10.81,9.29-.15,5.25-1.27,10.5-2.29,15.68-2.76,14.04-.38,33.35,1.56,44.77h-19.13Z"/>
  <path class="cls-1" d="M752.81,290.56c-1.54-1.99-5-8.14-6.01-10.37-6.18-13.64-9.05-23.46-9.67-38.53-1.11-26.79,1.48-53.02,12.33-77.92.82-1.88,2.22-3.51,3.35-5.26v132.07Z"/>
  <path class="cls-1" d="M365.25,752.36c-8.19-13.11-9.97-26.81-4.95-41.17,1.93-5.52,5.39-10.12,10.84-13.51,6.28-3.9,12.55-1.88,14.19,4.63.37,1.46.72,3.03.52,4.49-2.26,16.64,18.04,45.02,18.31,45.56h-38.92Z"/>
  <path class="cls-1" d="M752.81,460.98c-9.01,1.81-17.81.65-26.44-1.77-13.77-3.85-25.89-10.18-34.94-20.65-2.23-2.58-4.06-5.54-5.45-8.56-.11-.24-.18-.49-.22-.76-.35-2.49,2.38-4.3,4.64-3.21.31.15.59.32.84.54,10.37,8.98,22.67,14.61,36.72,16.01,8.16.82,16.56-.4,24.85-.7v19.11Z"/>
  <path class="cls-1" d="M56.93,752.36c-13.99-25.53-6.98-58.57,16.28-75.76.6-.44,1.37-.65,2.21-.76,2.19-.29,4.06,1.8,3.29,3.87-.11.31-.27.56-.48.75-17.82,15.83-19.45,41.25-5.97,61.59,2.34,3.53,4.95,6.87,7.44,10.3h-22.77Z"/>
  <path class="cls-1" d="M119.31,752.36c-7.59-15.38-9.64-36.18-9.78-40.7,0-.22.03-.43.1-.65.55-1.7,2.67-2.32,4.15-1.34.28.19.53.4.73.65,2.47,3.05,4.13,6.27,7.02,9.46,10.48,12.67,56.19,30.81,62.78,32.59h-65.01Z"/>
  <path class="cls-1" d="M752.81,373.79c-1.4-.78-3.09-1.27-4.14-2.38-9.08-9.55-14.83-20.71-14.95-34.1-.07-7.7.57-15.42,1.21-23.1.02-.23.08-.46.18-.69.95-2.27,4.2-2.52,5.57-.47.15.23.28.47.35.72,2.21,7.45,5.93,13.88,11.78,19.03v40.99Z"/>
  <path class="cls-1" d="M752.81,11.77c-9.41,1.16-15.06,8.48-13.7,18.88.15,1.14-.58,3.34-1.17,3.42-1.36.2-3.17-.25-4.3-1.05-7.56-5.4-9.72-13.32-10.72-21.59-.43-3.55-.07-7.18-.07-11.44h29.96v11.77Z"/>
  <path class="cls-1" d="M.46,752.36v-21.8c16.81.38,30.16,8.89,38.67,21.8H.46Z"/>
  <path class="cls-1" d="M752.81,708.94c-10.01-.29-19.04,2.91-27.39,8.87-.04.03-.09.06-.13.09-2.33,1.52-5.46-.74-4.62-3.39.04-.12.08-.24.14-.35,6.99-14.66,16.63-26.05,32-30.12v24.89Z"/>
  <path class="cls-1" d="M722.85,752.26c.1-10.35,6.19-13.44,12.97-16.9,5.27-2.68,10.56-4.99,16.98-4.81v21.8c-10.02,0-19.94-.1-29.96-.1Z"/>
  <path class="cls-1" d="M752.81,590.43c-3.3,3.39-6.6,6.78-10.01,10.28-1.6,1.64-4.36.42-4.24-1.87.57-10.6,8.11-32.24,14.25-39.97v31.56Z"/>
  <path class="cls-1" d="M752.75,626.93c-7.16,2.18-9.36,3.1-16.55,5.22-.37.11-.75.2-1.13.28-2,.41-3.4-2.1-1.9-3.49.01-.01.02-.02.04-.03,6.02-5.45,10.71-8.75,19.54-10.89v8.92Z"/>
  <path class="cls-1" d="M389.62,274.66c.49-56.89,49.14-118.23,98.86-142.32,8.82-2.39,1.68,5.47-1.22,7.9-7.04,6.22-13.62,12.96-19.38,20.39-18.82,24.59-33.35,52.66-40.73,82.72-7.3,29.51,2.65,60.43,21.5,80.56,15.39,16.8,36.68,27.91,59.81,27.7,10.73-.12,20.79-3.23,30.07-9.23,18.19-12.26,11.68,3,3.77,12.28-19.73,25.13-54.81,35.21-84.83,24.7-42.87-14.52-68.29-60.54-67.84-104.33v-.36Z"/>
  <path class="cls-1" d="M347.28,483.66c-.6,34.13-8.38,69.72-31.85,95.19-4.2,3.02-4.88.35-2.75-3.67,10.81-15.54,16.03-33.44,15.83-52.25.41-37.07-10.63-73.64-33.42-103-18.47-25.58-56.28-45.3-79.5-13.97-6.91,9.25-10.54,20.16-12.83,31.16-.84,3.29-1.19,7.12-3.53,9.7-2.82,3.13-7.36-1.75-9.21-5.06-5.74-9.64-7.77-21.1-6.35-32.31,3.86-29.46,31.92-53.46,60.8-55.9,67.41-5.78,103.13,71.66,102.81,129.75v.36Z"/>
  <path class="cls-1" d="M558.07,101.19c.08.86-1.54,2.82-2.63,3.87-6.63,6.85-13.04,14.36-18.42,22.22-12.99,20.05-21.67,42.8-23.67,66.57-3.76,47.83,31.03,61.68,27.39,96.03-1.56,19.97-27.58,42.35-38.21,14.33-3.81-10.98-2.81-22.93-6.18-34.06-4.57-17.7-12.41-34.92-12.17-53.54-.16-37.74,16.36-73.41,43.14-99.83,6.71-6.43,14.52-12.17,23.19-15.65,3.37-1.19,7.06-2.01,7.56-.1v.15Z"/>
  <path class="cls-1" d="M617.52,117.1c4.37.17,12.49-.29,15.07,2.46,1.87,3.47-4.99,4.98-7.38,5.75-14.38,4.31-29.03,10.22-40.42,20.2-11.72,12.08-18.83,28.31-22.51,44.61-4.31,20.5,6.57,39.42,16.93,56.45,13.61,23.05,22.06,52.43,3.71,75.43-3.27,4.13-6.56,8.92-11.4,11.26-7.52,2.67-5.53-5.22-3.29-9.3,18.31-39.17-32.95-74.82-33.46-114.91-1.78-47.32,31.18-92.12,82.4-91.95h.35Z"/>
  <path class="cls-1" d="M413.98,592.38c-56.62-2.68-79.77,48.29-128.23,65.77-26.16,9.64-55.89,6.72-81.18-4.49-4.03-1.73-10.94-6.22-9.35-7.65.57-1.13,3.44-1.52,7.64-1.4,6.06.22,12.32,1.02,18.38.87,13.61-.14,26.77-2.99,39.21-8.33,33.96-14.32,57.31-47.15,93.02-57.88,19.1-5.35,39.3-2.36,58.24,2.27,6.24,1.48,12.93,3.59,15.68,5.62,6.03,4.67-6.94,5.12-13.02,5.22h-.39Z"/>
  <path class="cls-1" d="M140.77,378.74c1.06-72.11,64.3-131.48,133.17-142.88,5.83-.88,12.08-1.84,17.83-1.38,8.5,1.09,5.51,6.14-.97,8.66-74.29,21.65-144.38,93.69-123.59,175.56,1.23,5.38,3.13,10.83,5,15.89,4.22,11.74-3.09,8.47-8.03,2.88-15.07-15.58-23.05-36.79-23.4-58.37v-.36Z"/>
  <path class="cls-1" d="M283.4,503.67c.27-33.94-12.07-66.71-40.35-85.09-2.62-2.11-7.89-4.89-7.82-8.16.63-2.49,4.58-2.25,8.75-1.73,19.35,3.34,34.94,14.98,45.91,30.59,30.13,42.89,21.69,109.05-9.36,149.29-13.68,17.78-31.75,33.93-54,39.66-5.01,1.33-13.93,1.16-9.1-5.01,1.97-2.25,5.11-4.49,7.61-6.49,35.61-27.35,56.35-68.28,58.35-112.71v-.35Z"/>
  <path class="cls-1" d="M346.25,246.28c1.19.78-.02,6.6-1.22,9.5-5.76,14.91-16.82,27.3-29.64,36.58-10.88,7.92-23.24,13.57-35.99,17.75-12.53,4.2-25.84,7.34-37.64,13.64-15.32,7.69-26.52,21.01-36.64,34.5-4.58,5.69-8.99,11.64-15.42,14.87-10.18,4.92-16.74-5.37-15.38-15.3,7.59-40.63,47.51-66.69,85.47-75.46,26.62-6.05,56.54-8.41,76.55-29.2,2.72-2.3,7.14-8.26,9.83-6.97l.08.08Z"/>
  <path class="cls-1" d="M456.5,660.52c-.48-.79.62-3.68,2.92-7.5,5.04-8.05,11.59-15.24,18.43-21.82,53.11-51.73,148.18-43.55,183.48,24.32,2.33,4.7,4.06,9.49,4.6,14.52,1.54,10.2-5.59,20.68-15.57,13.75-9.08-6.94-14.51-18.91-22.97-26.57-9.08-9.17-19.78-16.44-31.36-22.06-40.52-20.48-88.27-18.53-123.09,11.77-3.64,3.21-7.26,7.07-10.31,9.87-3.27,3.03-5.56,4.57-6.09,3.77l-.04-.06Z"/>
  <path class="cls-1" d="M436.17,414.56c-36.56-.15-71.49-24.61-85.93-60.03-2.81-6.9-4.61-13.67-1.88-21.09,3.75-10.21,12.67-17.18,22.35-17.02,8.88.14,17.84,7.55,20.42,18.01,3.8,15.43,11.95,28.25,21.86,40.36,11.49,14.02,26.77,19.81,44.06,21.59,4.95.51,9.99.16,14.99.2,2.64.02,6.27-1.03,6.79,2.49.22,1.55-2.55,4.08-4.51,5.3-11.64,7.27-24.5,10.25-38.14,10.19Z"/>
  <path class="cls-1" d="M632.59,463.44c-2.04,16.57-15.06,30.34-29.74,37.14-8.34,3.63-17.59,5.92-25.52,10.09-23.43,11.41-41.64,29.37-56.5,51.58-1.52,2.26-3.7,4.39-5.9,2.81-1.34-1.05-1.37-3.4-1.17-5.13,1.1-10.11,1.9-20.29,4.62-30.14,11.16-43.46,41.03-62.17,83.89-68.2,7.87-1.54,15.6-3.08,23.59-4.54,5.14-1.07,7.03.81,6.76,6.05l-.02.34Z"/>
  <path class="cls-1" d="M184.83,141.98c-15.89-.26-32.79-6.54-45.15-16.15-4.14-3.61-9.25-7.38-11.61-12.24-1.88-6.31,7-2.91,10.27-1.48,58.11,24.51,136.19-10.03,146.57-75.51,2.06-8.84,7.35-5.79,10.24,1.24,3.21,7.52,4.32,15.24,3.75,22.96-6.18,52.64-62.38,82.33-113.71,81.19h-.34Z"/>
  <path class="cls-1" d="M97.78,318.96c-5.12,1.1-11.8-2.37-16.91-4.31-34.52-14.67-57.57-44.07-66.59-79.08-7.88-28.82-5.96-57.21,5.37-83.96.97-2.57,3.81-7.29,5.75-7.51,2.52-.31,1.08,7.24.41,9.72-7.6,29.75,4.77,58.7,20.41,83.62,10.77,15.96,22.65,31.33,34.71,46.2,4.11,5.37,26.06,30.59,17.07,35.25l-.22.08Z"/>
  <path class="cls-1" d="M501.31,598.39c.77-3.84,5.91-8.04,8.67-11.18,10.7-10.8,22.57-20.22,35.64-27.8,15.15-8.43,31.49-14.98,45.56-25.04,28.18-19.41,50.96-48.44,58.21-82.67,1.48-9.65,5.36-12.28,7.65-.57,1.49,7.29,3.05,14.57,3.58,22.03,1.9,24.95-10.99,45.16-27.3,62.21-16.44,17.25-35.94,27.46-58.06,33.33-12.21,3.31-25.32,4.51-37.17,9.12-9.94,3.68-19.24,8.93-27.66,15.89-2.22,1.77-4.72,4.01-7.23,5.04-1.08.43-1.76.34-1.87-.24l-.02-.12Z"/>
  <path class="cls-1" d="M436.54,262.34c.47-27.44,11.62-52.47,28.44-73.29,2.68-3.05,12.09-15.76,15.89-11.2.55,1.13.24,3.15-.6,5.39-1.61,4.21-3.82,8.43-5.45,12.73-18.07,45.09-9.69,100.22,34.53,126.83,8.15,6.23,2.18,9.25-5.12,8.8-38.94-1.43-67.62-31.01-67.69-68.91v-.36Z"/>
  <path class="cls-1" d="M.46,228.16c0-18.52-1.11-51.23.1-69.67,3.07-6.52,10.66-13.59,12.23-15.38.37-.43.93-.7,1.54-.92,1.34-.47,2.76.39,3.01,1.79.14.77.19,1.5-.07,2.1-3.31,7.62-7.58,14.87-10.33,22.67-7.67,21.7-6.2,43.68.3,65.3,11.2,37.25,34.21,65.46,67.22,85.71,4.48,2.74,5.86,9.13,3.01,14.48-3.59,6.75-13.02,11.02-21.99,9.9-6.73-.84-12.87-3.09-18.4-7.2-16.85-12.52-29.08-35.16-36.53-46.36,0-2.28-.06-5.84-.07-7.77-.06-18.21-.03-36.42-.04-54.63Z"/>
  <path class="cls-1" d="M313.93,147.48c-.68-2.3,2.69-6.06,5.65-9.08,6-6.06,13.99-9.13,21.94-11.76,12.87-4.53,23.63-12.72,33.41-22.05,22.98-26.71,45.24-29.25,78.74-30.68,6.87-.08,14.12-1.39,20.87-.07,8.5,2.72,1.46,7.34-3.61,8.81-14.44,5.65-28.06,13.87-40.68,22.88-19.95,18.44-35.52,30.31-63.26,33.75-15.62,1.67-31.7,2.35-46.62,7.42-1.94.49-4.72,2.16-6.37.89l-.07-.11Z"/>
  <path class="cls-1" d="M94.36,262.57c3.04-62.37,70.47-103.72,128.5-109.67,1.91-.21,3.89-.33,5.65-.1,6.57.96,4.18,6.22-.84,8.15-34.55,11.29-67.3,29.59-90.35,58.46-18.79,22.62-28.57,50.17-26.7,79.51.06,2.66-.89,6.41-2.77,6.56-2.59.29-4.42-2.9-5.59-4.96-5.5-10.28-8.08-24.43-7.92-37.57v-.38Z"/>
  <path class="cls-1" d="M389.99,156.97c-3.03-.06-13.66.66-11.95-3.09,1.6-1.77,4.81-2.25,7.19-2.82,9.34-1.74,18.23-5.08,26.21-9.67,6.16-3.5,11.81-8.17,16.98-13.11,39.33-37.2,93.55-57.18,147.65-57.58,7.59.02,10.72,3.64.9,6.16-39.57,5.47-69.46,20.17-97.01,48.94-24.06,21.88-57.41,30.56-89.62,31.18h-.35Z"/>
  <path class="cls-1" d="M556.06,387.52c-3.67,35.2-31.93,65.14-63.74,78.52-15.82,7.38-35.32,7.82-48.56,20.1-6.84,6.32-11.3,15.76-20.21,19.36-15.52,5.92-24.48-6.81-17.9-21.09,12.26-24.66,42.25-30.24,66.47-36.51,18.91-4.75,38.69-9.49,54.02-22.29,11.96-9.84,22.76-22.84,25.59-38.48,1.15-5.72,4.08-7.02,4.32.04v.34Z"/>
  <path class="cls-1" d="M627.28,408.57c-.34-17.71-9.57-33.02-16.26-48.85-9.49-21.59-11.85-46.42-2.7-68.57,2.4-5.76,11.16-17.2,17.86-15.87,1.77.92.41,4.2-.44,5.87-3.72,6.96-5.69,14.29-5.77,21.7-.08,4.69.57,9.48,1.78,14.07,6.17,22.46,17.13,43.33,23.62,65.75,4.1,16.4,5.04,35.92-3.49,51.06-2.97,4.72-6.99,8.35-11.74,11.08-4.97,2.61-19.68,10.1-20.53-.03.37-5.5,5.31-8.98,8.55-12.97,5.8-6.52,9.23-15.19,9.12-22.89v-.35Z"/>
  <path class="cls-1" d="M216.97,572.3c-1.01-.52-1.82-3.39-2.44-7.17-2.16-19.43-11.32-36.32-25.57-49.62-12.95-13.15-30.75-21.34-41.87-36.21-5.4-7.62-6.58-20.06-.07-27.13,8.85-9.21,23.16-2.75,31.75,3.88,32.83,23.55,49.37,66.26,42.76,105.78-.37,2.45-1.05,5.41-1.85,7.49-.86,2.25-1.79,3.39-2.6,3.03l-.1-.05Z"/>
  <path class="cls-1" d="M662.42,374.13c-.85-1.62,2.79-6.41,4.48-8.68,8.64-11.73,15.23-24.85,18.73-39,6.33-24.17-.3-49.76,6.46-73.83,3.11-8.09,9.46-17.61,19.21-17.36,5.18.12,10.08,2.53,13,6.46,5.59,8.34,5.4,19.58,5.17,29.22-3.07,34.22-21.19,64.22-46.48,86.9-5.44,4.77-10.52,9.99-15.86,14.78-1.13,1.03-4.05,2.81-4.65,1.64l-.07-.13Z"/>
  <path class="cls-1" d="M456.46,509.52c-3.24.28-11.95-.45-8.72-3.9,1.1-1.22,3.65-2.44,6.36-3.38,10.51-3.43,21.06-6.71,30.97-11.78,49.29-23.94,88.6-74.08,84.96-130.77-.24-2.65.17-8.8,2.41-8.44,1.62-.18,4.11,4.04,5.05,6.64,2.09,5.32,4.03,10.69,5.21,16.3,6.51,31.93-5.87,63.59-26.74,87.31-25.55,30.13-60.54,46.68-99.13,48.01h-.38Z"/>
  <path class="cls-1" d="M263.06,675.54c2.47-2.47,10.17-2.3,14.33-3.14,22.05-2.79,41.69-13.24,59.06-26.49,23.38-17.25,47.57-35.87,76.04-43.64,11.69-1.54,6.01,9.81,1.9,15.13-29.18,44.21-81.66,70.47-134.15,64.16-3.76-.53-17.21-2.06-17.24-5.91l.05-.1Z"/>
  <path class="cls-1" d="M415.14,568.6c-12.99-1.04-26.82-4.2-40.14-4.45-7.46-.1-15,.11-21.46,3.49-3,1.48-6.14,3.69-9.16,4.81-6.22,2.02-4.59-3.96-1.87-8.05,9.67-15.77,25.54-29.4,44.96-28.68,10.66.02,21.12,4.15,31.75,5.76,15.92,2.87,32.61,1.25,47.51-5.15,11.86-4.93,22.15-12.16,31.05-21.6,2.79-2.77,6.26-7.9,9.61-8.06,3.25.87.22,6.96-.94,9.4-15.79,34.82-49.7,53.45-90.97,52.53h-.35Z"/>
  <path class="cls-1" d="M201.02,623.41c-.19-3.66,7.01-9.66,9.95-13.42,19.43-21.68,37.09-50.18,30.12-80.4-6.39-32.71-25.28-65.16-16.6-99.02,4.09-9.98,5.7.61,6.49,6.42,3.3,14.96,14.81,26.13,22.83,38.72,31.67,45.98-3.43,111.14-41.83,142.39-2.53,1.94-8.46,7.06-10.92,5.42l-.05-.1Z"/>
  <path class="cls-1" d="M360.41,467.58c.05-40.17-15.67-80.13-49-104.51-6.46-4.3-8.89-10.63,1.84-8.18,6.35,1.57,12.43,4.06,17.95,7.6,33.62,20.89,56.54,54.62,57.18,94.69-.02,10.44-2.61,21.45-10.15,29.16-4.16,4.22-10.06,4.32-13.81.26-4.4-4.64-3.91-12.44-4-18.66v-.37Z"/>
  <path class="cls-1" d="M639.52,307.61c.23-39.07,24.69-72.65,58.61-91.76,9.55-5.35,7.69,1.62,2.43,7.04-25.59,31.04-31.71,59.58-33.31,98.74-.63,8-5.8,38.01-13.91,40.04-2.97.26-4.38-3.37-5.32-5.71-5.49-14.19-8.4-30.74-8.49-47.97v-.38Z"/>
  <path class="cls-1" d="M307.83,110.87c1.49,1.61.15,6.76-.63,9.4-13.69,41.46-49.86,87.38-96.42,87.87-13.52.15-27.64-12.05-16.05-24.34,13.74-11.61,34.69-10.95,50.51-18.93,21.51-9.3,40.16-23.58,53.2-43.65,1.62-2.44,3.38-5.31,5.12-7.5,1.79-2.28,3.34-3.44,4.18-2.91l.09.06Z"/>
  <path class="cls-1" d="M626.31,565.62c25.57.65,48.25,14.83,54.48,41.59.41,1.71.74,3.42.97,5.11,1.41,9.69-1.54,25.31-12.91,26.97-8.35-.07-11.15-11.1-15.22-16.78-12.33-19.88-34.4-34.95-58.17-35.1-8.19-1.01-1.96-8.92,1.66-11.65,7.95-6.61,18.49-10.18,28.82-10.15h.37Z"/>
  <path class="cls-1" d="M283.82,196.33c33.27.47,64.78,24.48,98.7,17.1,7.09-.95,12.25.86,5.71,8.39-6.05,6.86-15.91,11.18-25.21,12.29-10.13,1.32-20.54-.56-30.42-2.95-36.96-8.84-61.17-19.3-98.64-4.18-9.26,2.92-11.72.5-5.49-6.31,4.75-5.12,10.79-9.36,16.79-13.07,11.4-6.98,24.84-11.3,38.17-11.27h.38Z"/>
  <path class="cls-1" d="M134.04,470.1c.44,22.49-6.2,46.38-24.66,60.35-5.19,4-11.16,7.33-17.43,9.3-7.38,2.43-17.34,2.17-9.11-7.53,6.82-7.47,14.32-14.91,18.48-24.21,15.29-33.13,7.32-73.39-9.59-104.67-9.34-16.75-3.4-19.29,9.67-7.03,10.06,9.68,18.63,20.5,23.98,33.01,5.28,12.78,8.11,26.72,8.65,40.39v.38Z"/>
  <path class="cls-1" d="M241.81,333.59c-.32-1.39,3.43-3.1,9.37-4.48,4.44-1.06,9.58-1.79,14.5-2.35,31.32-2.37,56.27-12.75,73.95-39.83,8.22-10.2,21.25-43.87,37.11-37.32,11.57,8.92.9,28.51-5.29,38.38-18.86,30.02-52.94,49.44-88.7,48.87-10.91.08-24.47.07-34.65-.91-3.7-.47-6-1.28-6.27-2.29l-.02-.08Z"/>
  <path class="cls-1" d="M100.31,93.08c1.28,35.05,30.06,54.76,64.04,58.04,10.37,2.08-5.05,14.14-9.06,16.02-44.56,23.34-93.96-36.05-64.29-78.02,1.59-2.98,7.05-8.32,8.96-2.86.56,2.11.28,4.34.34,6.48v.33Z"/>
  <path class="cls-1" d="M438.63,682.59c-1.71-.88-2.87-5.77-3.4-8.26-7.83-41.61,6.82-88.94,40.38-115.18,19.77-13.41,33.34.21,22.29,20.82-2.98,5.42-7.11,10-11.28,14.5-12.76,13.49-25.23,27.68-35.5,43.29-5.71,8.85-9.17,19.23-10.1,29.75-.53,4.57-.15,9.32-1.15,13.67-.29.98-.68,1.49-1.14,1.43l-.1-.02Z"/>
  <path class="cls-1" d="M708.59,644.12c-1.15-3.67,2.38-10.11,3.17-14.23,9.61-33.95-1.55-69.68-18.24-99.2-4.41-7.68-9.57-14.95-14-22.63-3.06-6.31-13.52-19.28-7.19-25.32,2.67-1.92,6.46.69,8.48,2.92,8.2,8.56,16.54,16.98,24.18,26.15,25.37,30.44,33.53,66.56,22.89,105.05-2.6,9.66-7.79,18.24-14.82,25.25-1.94,1.86-3.7,2.87-4.38,2.12l-.09-.11Z"/>
  <path class="cls-1" d="M132.93,637.19c-19.92.05-21.72-19.24-3.17-24.78,31.25-6.01,55.12-22.74,61.85-55.85,1.64-4.75,1.37-21.28,5.84-21.97,2.91,1.1,3.44,8.98,3.5,12.76.46,50.11-30.01,90.45-67.68,89.84h-.34Z"/>
  <path class="cls-1" d="M173.84,106.09c-17.46-.05-35.57-3.83-50.44-13.6-6.24-4.07-12.75-10.23-13.7-17.31-1.84-12.4,11.57-21.53,23.05-16.78,4.5,1.6,8.73,4.61,12.61,7.35,23.73,17.03,50.38,26.22,79.65,22.23,2.52-.26,7.09-.82,8.57.61.6.63.3,1.58-.79,2.65-16.87,11.26-38.8,14.08-58.61,14.86h-.36Z"/>
  <path class="cls-1" d="M364.8,201.57c-27.84-2.3-54.5-16.49-82.93-12.4-4.79.74-14.63.02-7.23-6.55,3.89-3.18,8.73-5.33,13.47-7.46,47.58-20.76,72.73,12.93,116.51.25,9.75-3.18,19.43-3.48,8.59,7.69-6.92,6.9-15.72,12.02-25.03,14.88-7.62,2.26-15.36,3.5-23.04,3.59h-.34Z"/>
  <path class="cls-1" d="M603.04,703.58c-1.72,1.76-7.8.22-10.46-.09-21.49-3.86-42.73-1.36-61.41,10.4-10.83,6.06-19.93,17.6-33.13,18-15.66-1.11-18.11-19.19-8.94-29.6,26.31-28.35,75.42-24.12,106.52-6.43,2.44,1.63,7.67,4.38,7.5,7.57l-.08.15Z"/>
  <path class="cls-1" d="M122.28,288.42c1.53-41.08,38.82-82.29,80.14-74.58,16.2,4.11,18.17,23.19,3.96,31.51-19.84,9.85-29.15-12.01-62.25,20-4.2,4.23-7.9,8.9-10.96,14.03-2.38,3.08-9.38,23.2-10.87,9.39v-.36Z"/>
  <path class="cls-1" d="M201.96,71.66c-22.27-1.02-42.4-12.87-58.13-33.03-1.45-1.9-3.79-5.78-1.21-7.14,1.5-.74,4.2.2,6.46,1.31,3.42,1.72,6.79,3.66,10.22,5.39,35.39,18.63,76.18,11.57,98.88-22.08,17.37-18.24,7.59,57.26-55.85,55.56h-.37Z"/>
  <path class="cls-1" d="M365.25.05c13.35,0,26.6,0,38.92,0,11.19,17.03,47.26,51.91,83.02,57.46.75.12,2.81.71,3.5,1.09,1.81.98,1.23,3.95-.77,4.43-.11.03-.22.04-.33.05-42.46,3.56-94.13-11.53-121.67-58.44-.73-1.24-1.68-2.58-2.67-4.59Z"/>
  <path class="cls-1" d="M389.79,54.92c.2,11.63-4.92,21.95-12.69,30.13-8.34,9.39-18.03,17.37-29.25,23.33-7.9,4.18-15.19,9.97-23.94,12.19-2.52.66-4.79-.55-3.94-2.98,1.04-2.6,3.75-4.16,5.84-6.28,16.95-16.04,28.25-38.53,26.61-62.23,2.41-29.48,38.28-19.91,37.37,5.5v.35Z"/>
  <path class="cls-1" d="M584.7,674.15c-9.65-.47-19.02-4.75-28.37-7.08-22.03-5.89-45.83-.72-65.56,10.2-6.5,3.62-12.23,3.84-6.46-4.52,12.54-16.78,32.09-27.44,52.25-32.15,19.64-4.31,41.62-3.13,59.67,6.68,19.18,10.73,7.66,27.58-11.16,26.88h-.36Z"/>
  <path class="cls-1" d="M299.64,716.02c-19.54-.19-39.18-5.5-52.53-19.39-5.33-5.71-10.7-13.08-11.84-20.86-.28-5.05,3.41-4.39,6.81-1.7,32.76,31.4,89.25,23.73,124.01-1.46,10.69-7.96,10.16-1.26,4.55,6.76-17.01,25.08-42.78,35.41-70.61,36.65h-.38Z"/>
  <path class="cls-1" d="M400.52,436.43c-3.22-.9-6.35-4.95-2.2-6.47,2.15-.76,5.2-.12,7.96.32,5.53.95,11.04,1.69,16.66,1.49,34.56-.32,59.55-22.5,85.69-42,5.6-3.21,13.45-7.66,19.77-4.47,3.47,2.03,5.23,6.42,4.34,10.32-15.21,39.55-91.99,53.74-131.86,40.95l-.36-.14Z"/>
  <path class="cls-1" d="M56.93.05h22.77c7.99,15.2,6.13,72-13.8,102.29-7.73,11.75-11.85,25.58-16.82,38.74-4.26,11.27-5.28,23.31-5.27,35.37,0,.76.28,1.63,0,2.25-.11.23-.23.46-.36.69-.96,1.69-3.59,1.78-4.28-.04-.05-.14-.09-.28-.1-.42-.48-6.63-1.04-13.3-.78-19.93.99-24.81,9.65-47.69,18.45-70.47,8.73-22.61,11.37-45.8,7.5-69.69-.99-6.12-3.9-11.84-7.32-18.79Z"/>
  <path class="cls-1" d="M93.47,442.28c3.21,27.28,3.8,64.02-18.01,84.06-11.55,9.95-26.59,4.35-24.89-11.54.51-5.75,2.86-11.45,5.45-16.63,10.23-20.78,26.24-39.51,28.5-63.2.39-4.19.33-9.28.76-13.2.33-3.18.9-5.04,1.72-4.96.5.09.88.59,1.18,1.1,2.68,4.28,4.36,17.09,5.24,23.98l.05.39Z"/>
  <path class="cls-1" d="M.52,667.7c0-9.42-.24-24.83.08-33.75,14.03-3.16,25.64-.32,36.67,1.13,22.23,2.94,42.59,10.47,59.44,25.79,3.44,3.13,6.41,6.83,9.25,10.54.19.25.29.55.35.9.32,2.03-1.38,3.84-3.43,3.84-.6,0-1.15-.09-1.59-.36-27.24-16.86-62.29-20.03-100.77-8.1Z"/>
  <path class="cls-1" d="M120.77,602.57c.52-3.56,7.16-7,10.04-9.59,15.42-11.93,32.25-28.95,30.14-49.92-1.25-10.95-9.34-19.31-18.93-24.06-7.26-3.52-13.6-11.71-6.4-18.4,7.33-6.36,19.83-1.27,27.02,3.7,10.83,7.15,18.39,18.51,19.51,31.45,1.86,24.93-15.28,50.16-37.62,60.95-4.41,2.14-20.06,9.23-23.73,5.98l-.03-.1Z"/>
  <path class="cls-1" d="M575.4,197.91c-.9-34.94,28.87-61.76,62.97-61.77,7.1,1.37.92,7.04-2.3,9.19-25.15,18.26-44.4,47.56-43.72,79.28.56,9.38-4.63,12.19-9.26,3.13-5-10.07-7.52-19.76-7.7-29.46v-.36Z"/>
  <path class="cls-1" d="M.46,332.67c11.02,9.47,21.98,17.39,34.32,23.12,13.64,6.33,24.89,15.7,33.28,28.08,3.41,5.03,12.21,18.89,6.39,20.58-.53.15-2.78-.17-3.31-.95-8.08-11.79-20.1-15.94-33.46-17.5-6.02-.71-12.24-.45-18.04-1.94-5.85-1.5-11.74-4.78-19.08-10.27-.18-12.87-.1-26.92-.1-41.12Z"/>
  <path class="cls-1" d="M271.89.03c16.64,0,33.68.02,50.03.02,1.29,1.28,1.8,1.77,2.64,3.11,16.69,21.7,12.9,33.53,10.53,51.89-1.04,8.03-3.58,15.9-5.88,23.72-.1.36-.27.69-.48,1.02-1.72,2.65-5.65,1.99-6.44-1.07-.05-.18-.08-.36-.11-.55-3.57-25.12-11.83-47.99-31.8-64.96-5.71-4.86-11.8-8.6-18.49-13.18Z"/>
  <path class="cls-1" d="M658.97,220.43c-9.04.05-20.49-6.74-19.48-16.83.89-10.03,11.96-15.66,20.65-17.69,19.94-5.59,42.24,1.11,60.84-9.89,2.48-1.11,15.14-9.85,11.88-2.18-2.56,4.18-6.76,7.55-10.19,11.14-16.91,16.49-39.38,33.13-63.34,35.46h-.35Z"/>
  <path class="cls-1" d="M119.02.04C140.95.04,163.62,0,184.23.05c1.24.51,31.8,9.48,47.95,7.11.02,0,.03,0,.05,0,3.19-.41,4.84,3.97,2.19,5.78-.02.01-.04.03-.06.04-12.2,7.97-25.87,11.69-40.22,12.91-20.01,1.71-39.29-1.12-57.21-10.69-6.66-3.55-12.57-8.11-17.9-15.16Z"/>
  <path class="cls-1" d="M139.5,432.88c-2.33-1.3-4.19-6.7-5.71-9.38-6.11-11.77-12.43-23.5-19.69-34.53-7.54-12.8-18.87-24.14-22.26-38.93-4.05-21.96,14.75-30.75,27.54-11.64,4.02,5.88,5.91,12.92,7.47,19.82,4.42,20.19,8.75,40.4,12.98,60.62.48,2.97,3.07,13.48-.2,14.08l-.13-.04Z"/>
  <path class="cls-1" d="M.68,504.38v-28.54c22.49-5.07,40.62-16.98,55.73-33.78,3.23-3.59,5.7-7.85,8.83-11.53.39-.46.87-.83,1.41-1.15,1.89-1.15,4.38-.26,5.17,1.8.29.74.45,1.46.33,2.13-2.86,15.66-10.73,28.81-21.11,40.6-12.07,13.72-26.94,24.71-50.37,30.47Z"/>
  <path class="cls-1" d="M.46,590.29c0-9.83.11-21.87-.14-30.89,6.5-13.28,9.03-27.57,12.04-34.67,2.05-4.85,4.44-9.7,7.53-13.93,5.08-6.95,14.6-6.23,18.19,1.56,1.99,4.32,3.33,9.75,2.62,14.32-1.1,7.05-3.36,14.23-6.63,20.58-8.29,16.08-19.01,30.48-33.61,43.04Z"/>
  <path class="cls-1" d="M86.68,545.52c14.24.85,39.94,5.51,17.78,20.49-12.9,8.63-27.92,11.41-43.33,10.42-7.41-.28-14.94-.58-22.14,1.36-3.09.29-15.39,7.11-15.03,1.35,7.68-20.31,41.37-34.54,62.34-33.64h.39Z"/>
  <path class="cls-1" d="M464.89,524.39c-1.36,2.48-6.22,3.73-9.01,4.49-26.5,6.34-57.16,7.66-81.12-7.54-19.84-12.57-15.32-32.31,9.33-21.84,20.61,9.19,40.8,21.14,63.88,22.02,3.46.36,16.87-1.17,16.97,2.7l-.06.18Z"/>
  <path class="cls-1" d="M.62,11.77C.62,7.68.46,1.9.46.05c10.36,0,28.35,0,38.67,0,0,0,3.56,5.66,4.45,8.56,9.31,30.34,3.51,46.38,1.14,50.5-2.54,4.42-7.1,5.55-10.95,3.83-4.18-1.88-5.95-5.77-4.85-10.99,1.91-9.12.38-17.81-3.63-26.04C20.41,15.91,12.12,11.3.62,11.77Z"/>
  <path class="cls-1" d="M2.8,606.54c2.34-4.68,8.5-7.97,12.98-10.87,24.78-15.46,55.31-11.8,83.06-16.02,4.56-.04,17.15-6.77,19.06-1.4.62,5.06-5.72,11.26-9.14,15.18-5.77,6.27-13.39,11.25-22.04,11.92-9.34.95-19.01-2.88-28.42-4.28-10.28-1.68-20.83-1.57-30.98.95-3.74.91-7.41,2.13-10.99,3.53-3.13,1.11-14.59,6.92-13.6,1.19l.07-.2Z"/>
  <path class="cls-1" d="M574.2,454.87c-.63-.83.29-2.91,1.94-5.52,30.42-40.18,17.54-63.7,13.96-108.88.8-8.01,5.16-1.01,6.43,2.38,4.5,10.86,8.24,22.13,13.04,32.84,2.9,6.61,5.86,13.35,6.2,20.67.85,24.21-13.64,47.39-35.72,57.61-2.78,1.27-5.07,1.83-5.76,1l-.08-.11Z"/>
  <path class="cls-1" d="M630.61,236.98c-.45,13.23-5.81,25.78-15.74,34.6-4.42,3.9-10.87,8.42-15.61,3.37-4.69-5.59-5.4-14.22-2.26-20.72,3.85-8.88,11.51-15.88,14.14-25.38,2.34-7.59.91-15.48-1.76-22.84-.65-2.09-.84-4.02.14-4.8,2.18-1.39,5.14,1.12,6.92,2.56,9.32,8.34,14.02,20.16,14.17,32.83v.37Z"/>
  <path class="cls-1" d="M72.48,108.8c1.37,2.42,0,9.42-.29,12.9-2.02,16.99-.4,33.86,2.93,50.69,1.19,6.54,2.57,13.23,2.13,19.89-.2,9.52-7.51,17.82-16.5,10.74-6.48-5.15-8.47-14.29-8.63-22.29-.22-17.69,6.12-34.57,11.17-51.3,1.52-3.74,5.58-20.78,9.12-20.69l.07.06Z"/>
  <path class="cls-1" d="M108.96,651.2c3.59-2.68,10.55,1.83,14.67,2.75,9.63,3.21,19.67,3.26,29.58.59,8.29-1.74,16.32-7.47,25-5.88,12.17,3.55,5.72,19.47-2.69,23.79-20.6,12.29-49.47,3.38-64.51-14.69-1.34-1.7-3.24-4.56-2.18-6.39l.12-.17Z"/>
  <path class="cls-1" d="M418.67.03c12.32,0,24.14,0,36.25,0,14.11,22.18,15.62,27.59,28.39,37.07,1.22.9,2.66,1.58,3.66,2.68.83.91,1.87,2.65,1.51,3.37-.54,1.1-2.27,2.37-3.4,2.29-4.51-.31-9.15-.56-13.44-1.83C449.49,37.02,419.31,1.29,418.67.03Z"/>
  <path class="cls-1" d="M77.83,236.3c0-18.57,2.88-40.31,17.42-52.83,5.54-4.48,14.09-7.34,20.42-3.03,5.66,3.76,6.83,12,1.61,16.81-2.06,2.1-4.86,3.8-7.63,5.49-13.49,6.94-18.73,20.91-21.77,35.07-.91,3.92-1.22,8.12-2.6,11.73-.57,1.4-1.26,2.26-2.01,2.39-4.04-.26-5.22-10.9-5.42-15.25l-.02-.38Z"/>
  <path class="cls-1" d="M.48,708.99c0-8.12-.08-17.41.11-24.94,13.07-3.81,32.75-2.81,43.01,9.56,2.63,3.16,4.5,7.66,4.97,11.75.87,7.51-2.3,14.52-11.45,15.03-2.71.15-5.24-1.49-7.81-2.39-9.09-3.19-17.62-8.3-28.84-9Z"/>
  <path class="cls-1" d="M549.34,60.65c-19.39.19-42.3-4.29-54.49-20.51-3.83-5.22-7.58-12.04-6.14-18.64,2.34-9.33,13.14-8,18.83-2.43,11.49,10.05,19.3,24.92,33.73,31.21,4.02,2.16,11.17,2.99,13.85,6.39,1.18,1.82-2.69,3.74-5.45,3.94l-.34.05Z"/>
  <path class="cls-1" d="M629.33,105.02c-3.31-.08-6.87-1.35-10.2-2.28-15.19-4.64-29.11-1.33-41.94,7.59-2.99,1.43-12.32,11.62-14.3,6.35-.19-4.29,3.82-7.96,6.11-11.58,6.25-8.77,14.14-15.55,24.34-19.91,14.05-6.21,33.71-4.23,43.8,8.65,4.25,6.42-.69,11.42-7.48,11.19h-.33Z"/>
  <path class="cls-1" d="M640.98,31.01c11.03.4,23.64,7.93,26.55,19.05,1.35,5.75-3.19,11.11-8.98,9.84-6.51-1.4-12.36-5.57-18.84-7.39-11.3-3.57-19.54-.72-29.08,6.33-2.18,1.57-6.62,5.21-8.26,4.25-2.11-1.67.1-5.83,1.01-7.97,6.9-14.46,20.46-24.33,37.22-24.12h.37Z"/>
  <path class="cls-1" d="M161.06,729.43c-12.48.13-26.4-6.45-32.48-17.1-2.82-4.79-2.08-10.64,5.01-8.2,15.17,7.5,27.88,9.4,44.61,4.78,5.68-1.56,11.17-3.83,16.21-6.89,2.97-1.19,15.25-12.78,15.93-6.06-.36,3.68-3.34,7.25-5.71,10.09-11.34,12.93-26.07,22.96-43.2,23.37h-.37Z"/>
  <path class="cls-1" d="M701.56,629.22c-.18,9.31-2.11,18.7-5.27,27.85-3.99,11.81-12.21,22.44-13.4,35.11-2.74,12.93-9.57.31-9.71-6.26-2.34-24.02,21.59-31.92,17.4-77.83-.24-6.47,3.08-7.41,5.84-2.27,3.36,6.77,5.04,15.39,5.15,23.03v.37Z"/>
  <path class="cls-1" d="M664.42,512.52c7.25.55,11.86,7.68,15.02,13.63,10.04,19.17,19.12,39.83,20.42,61.5-1.14,8.24-5.99-2.82-6.99-6.19-4.98-14.93-13.49-28.08-24.19-39.85-4.55-5.35-10.68-10.22-13.24-16.84-2.58-6.2,1.9-12.59,8.66-12.27l.33.02Z"/>
  <path class="cls-1" d="M83.34.05c5.49,0,14.32,0,19.13,0,.1,3.56,9.8,27.42,17.69,38.46,1.22,1.71,2.31,3.59,3.07,5.54,1.93,4.95-.42,8.49-5.79,8.54-7.55.07-13.43-3.71-16.69-10.05-5.1-9.9-9.39-20.23-13.61-30.54-1.45-3.55-2.15-6.08-3.8-11.96Z"/>
  <path class="cls-1" d="M78.77,637.39c-10.07-.19-19.93-3.73-27.79-10.14-4.09-3.52-8.64-8.72-5.21-11.81,5.27-2.43,12.18,1.5,17.71,2.31,11.19,2.66,23.09,2.07,33.45-3.19,3.53-1.59,9.19-5.71,12.59-3.66,2.8,2.14,1.75,6.67.66,9.63-5.05,12.17-18.73,17.11-31.03,16.86h-.38Z"/>
  <path class="cls-1" d="M570.01,48.53c-9.08-.12-18.01-2.56-25.62-7.39-11.52-8.26-4.21-10.58,6.45-8.51,33.5,6.1,53.49-19.9,59.19-12.94,1.65,2-.53,7.77-3,10.93-8.22,11.53-22.59,18.05-36.62,17.9h-.4Z"/>
  <path class="cls-1" d="M156.87,704.61c-12.9-.6-24.73-7.01-33.2-16.8-1.4-1.75-3.02-3.83-3.23-6.1.24-5.18,8,.24,10.43,1.22,12.5,6.31,26.84,1.98,40.5.18,2.55-.35,5.89-.33,8.13.81,6.65,3.15,4.66,11.33-.7,15.16-6.13,4.71-14.15,5.7-21.61,5.54h-.32Z"/>
  <path class="cls-1" d="M.69,427.09v-28.96c1.76.58,3.31,1.44,4.77,2.05,9.49,3.96,19.07,6.92,29.47,3.5,4.12-1.96,4.76,2.06,3.02,4.26-2.24,2.83-4.59,5.67-7.34,7.98-8.45,7.1-17.98,11.48-29.91,11.17Z"/>
  <path class="cls-1" d="M672.6.04c-.29,12.92,6.13,23.39,13.19,33.11.62.85,1.29,1.74,1.62,2.73.07.22.14.45.21.67.77,2.69-1.79,5.28-4.41,4.3-.02,0-.03-.01-.05-.02-14.85-5.84-31.59-26.39-31.4-40.78h20.84Z"/>
  <path class="cls-1" d="M585.22.02c18.33,0,32.67-.02,51.01.04,1.13,0,11.92,14.01,15.6,22.64.18.43.19.93.12,1.46-.25,1.92-2.25,3.23-4.07,2.56-.25-.09-.47-.21-.67-.36-20.76-16.25-29.42-8.03-61.99-26.35Z"/>
  <path class="cls-1" d="M.48,50.91c8.17.56,14.86,2.86,20,8.62,5.45,6.11,4.66,13.9-2.56,17.57-4.42,2.25-9.33,3.91-17.32,3.52-.2-8.91-.12-20.21-.12-29.71Z"/>
  <path class="cls-1" d="M511.46.1c4.18,1.36,18.67,7.57,26.79,7.63.24,0,.49.06.73.15,2.28.87,2.57,4.16.46,5.37-.21.12-.43.21-.65.25-14.59,2.95-47.89.01-64.69-13.48,10.94.02,26.42-.08,37.37.07Z"/>
  <path class="cls-1" d="M220.91,687.41c.11-3.39-.1-20.74,5.95-17.03,3.82,3.36,5.96,14.1,8.11,19.89,2.07,7.86,8.28,18.04,1.37,24.41-1.84,1.32-4.21,1.44-6.33.57-9.23-4.87-8.72-18.25-9.1-27.44v-.41Z"/>
  <path class="cls-1" d="M.48,460.98c0-5.16-.11-13.98.1-19.11,10.25-1.02,22.64-2.29,31.93-7.35.1-.06.22-.08.36-.08.77,0,1.32.76,1.21,1.51-1.56,10.75-18.31,23.82-33.6,25.01Z"/>
  <path class="cls-1" d="M.61,112.72v-15.92c1.53-.27,12.62,1.77,34.24-12.21.51-.33.9-1,1.42-1.09.18-.03.36-.06.54-.07,1.63-.16,3.13,1.22,2.81,2.83-.05.27-.15.51-.31.69-3.36,3.69-6.72,7.46-10.57,10.61-8.23,6.74-17.18,12.32-28.15,15.16Z"/>
  <path class="cls-1" d="M.59,626.93v-8.92c5.58-1.42,14.71-3.63,19.87-4.73,4.34-.93,9-1.24,12.27,2.58,1.16,1.35,1.92,3.98,1.41,5.57-.42,1.31-2.94,2.69-4.57,2.74-9.46.26-16.98-.02-28.98,2.77Z"/>
  <path class="cls-1" d="M.57,133.9v-13.66c2.75-.63,4.13-1.18,8.24-2.59,5.98-2.05,11.37-5.55,17.1-8.21.28-.13.59-.19.93-.21,1.42-.09,2.67,1.16,2.3,2.53-.04.16-.11.3-.22.4-8.13,8.14-17.06,17.23-28.35,21.74Z"/>
</svg>